solid ascii
  facet normal 0.000000e+00 0.000000e+00 1.000000e+00
    outer loop
      vertex   -7.792799e+00 6.266760e+00 3.300000e+01
      vertex   -8.852469e+00 4.651213e+00 3.300000e+01
      vertex   -9.953229e+00 -9.660345e-01 3.300000e+01
    endloop
  endfacet
  facet normal 0.000000e+00 0.000000e+00 1.000000e+00
    outer loop
      vertex   -8.852469e+00 4.651213e+00 3.300000e+01
      vertex   -9.581686e+00 2.862042e+00 3.300000e+01
      vertex   -9.953229e+00 -9.660345e-01 3.300000e+01
    endloop
  endfacet
  facet normal 0.000000e+00 -0.000000e+00 1.000000e+00
    outer loop
      vertex   -9.953229e+00 -9.660345e-01 3.300000e+01
      vertex   -9.581686e+00 2.862042e+00 3.300000e+01
      vertex   -9.953229e+00 9.660345e-01 3.300000e+01
    endloop
  endfacet
  facet normal 0.000000e+00 0.000000e+00 1.000000e+00
    outer loop
      vertex   -3.079047e+00 9.514172e+00 3.300000e+01
      vertex   -4.851185e+00 8.744484e+00 3.300000e+01
      vertex   -9.953229e+00 -9.660345e-01 3.300000e+01
    endloop
  endfacet
  facet normal 0.000000e+00 0.000000e+00 1.000000e+00
    outer loop
      vertex   -4.851185e+00 8.744484e+00 3.300000e+01
      vertex   -6.442233e+00 7.648375e+00 3.300000e+01
      vertex   -9.953229e+00 -9.660345e-01 3.300000e+01
    endloop
  endfacet
  facet normal 0.000000e+00 0.000000e+00 1.000000e+00
    outer loop
      vertex   -9.953229e+00 -9.660345e-01 3.300000e+01
      vertex   -6.442233e+00 7.648375e+00 3.300000e+01
      vertex   -7.792799e+00 6.266760e+00 3.300000e+01
    endloop
  endfacet
  facet normal -0.000000e+00 0.000000e+00 1.000000e+00
    outer loop
      vertex   -8.852469e+00 -4.651213e+00 3.300000e+01
      vertex   -7.792799e+00 -6.266760e+00 3.300000e+01
      vertex   2.643560e+00 9.644252e+00 3.300000e+01
    endloop
  endfacet
  facet normal -0.000000e+00 0.000000e+00 1.000000e+00
    outer loop
      vertex   -7.792799e+00 -6.266760e+00 3.300000e+01
      vertex   -6.442233e+00 -7.648375e+00 3.300000e+01
      vertex   2.643560e+00 9.644252e+00 3.300000e+01
    endloop
  endfacet
  facet normal 0.000000e+00 0.000000e+00 1.000000e+00
    outer loop
      vertex   2.643560e+00 9.644252e+00 3.300000e+01
      vertex   -6.442233e+00 -7.648375e+00 3.300000e+01
      vertex   -4.851185e+00 -8.744484e+00 3.300000e+01
    endloop
  endfacet
  facet normal 0.000000e+00 -0.000000e+00 1.000000e+00
    outer loop
      vertex   2.643560e+00 -9.644252e+00 3.300000e+01
      vertex   4.448840e+00 -8.955882e+00 3.300000e+01
      vertex   2.643560e+00 9.644252e+00 3.300000e+01
    endloop
  endfacet
  facet normal 0.000000e+00 -0.000000e+00 1.000000e+00
    outer loop
      vertex   4.448840e+00 -8.955882e+00 3.300000e+01
      vertex   6.088050e+00 -7.933199e+00 3.300000e+01
      vertex   2.643560e+00 9.644252e+00 3.300000e+01
    endloop
  endfacet
  facet normal 0.000000e+00 0.000000e+00 1.000000e+00
    outer loop
      vertex   2.643560e+00 9.644252e+00 3.300000e+01
      vertex   6.088050e+00 -7.933199e+00 3.300000e+01
      vertex   4.448840e+00 8.955882e+00 3.300000e+01
    endloop
  endfacet
  facet normal 0.000000e+00 0.000000e+00 1.000000e+00
    outer loop
      vertex   6.088050e+00 -7.933199e+00 3.300000e+01
      vertex   6.088050e+00 7.933199e+00 3.300000e+01
      vertex   4.448840e+00 8.955882e+00 3.300000e+01
    endloop
  endfacet
  facet normal 0.000000e+00 0.000000e+00 1.000000e+00
    outer loop
      vertex   7.500000e+00 -6.614378e+00 3.300000e+01
      vertex   7.500000e+00 6.614378e+00 3.300000e+01
      vertex   6.088050e+00 -7.933199e+00 3.300000e+01
    endloop
  endfacet
  facet normal 0.000000e+00 0.000000e+00 1.000000e+00
    outer loop
      vertex   7.500000e+00 6.614378e+00 3.300000e+01
      vertex   6.088050e+00 7.933199e+00 3.300000e+01
      vertex   6.088050e+00 -7.933199e+00 3.300000e+01
    endloop
  endfacet
  facet normal 0.000000e+00 0.000000e+00 1.000000e+00
    outer loop
      vertex   2.643560e+00 9.644252e+00 3.300000e+01
      vertex   7.395980e-01 9.972612e+00 3.300000e+01
      vertex   -9.953229e+00 -9.660345e-01 3.300000e+01
    endloop
  endfacet
  facet normal 0.000000e+00 0.000000e+00 1.000000e+00
    outer loop
      vertex   7.395980e-01 9.972612e+00 3.300000e+01
      vertex   -1.191972e+00 9.928706e+00 3.300000e+01
      vertex   -9.953229e+00 -9.660345e-01 3.300000e+01
    endloop
  endfacet
  facet normal 0.000000e+00 0.000000e+00 1.000000e+00
    outer loop
      vertex   -9.953229e+00 -9.660345e-01 3.300000e+01
      vertex   -1.191972e+00 9.928706e+00 3.300000e+01
      vertex   -3.079047e+00 9.514172e+00 3.300000e+01
    endloop
  endfacet
  facet normal 0.000000e+00 -0.000000e+00 1.000000e+00
    outer loop
      vertex   -8.852469e+00 -4.651213e+00 3.300000e+01
      vertex   2.643560e+00 9.644252e+00 3.300000e+01
      vertex   -9.581686e+00 -2.862042e+00 3.300000e+01
    endloop
  endfacet
  facet normal 0.000000e+00 0.000000e+00 1.000000e+00
    outer loop
      vertex   2.643560e+00 9.644252e+00 3.300000e+01
      vertex   -9.953229e+00 -9.660345e-01 3.300000e+01
      vertex   -9.581686e+00 -2.862042e+00 3.300000e+01
    endloop
  endfacet
  facet normal -0.000000e+00 0.000000e+00 1.000000e+00
    outer loop
      vertex   -3.079047e+00 -9.514172e+00 3.300000e+01
      vertex   -1.191972e+00 -9.928706e+00 3.300000e+01
      vertex   2.643560e+00 9.644252e+00 3.300000e+01
    endloop
  endfacet
  facet normal -0.000000e+00 0.000000e+00 1.000000e+00
    outer loop
      vertex   -1.191972e+00 -9.928706e+00 3.300000e+01
      vertex   7.395980e-01 -9.972612e+00 3.300000e+01
      vertex   2.643560e+00 9.644252e+00 3.300000e+01
    endloop
  endfacet
  facet normal 0.000000e+00 0.000000e+00 1.000000e+00
    outer loop
      vertex   2.643560e+00 9.644252e+00 3.300000e+01
      vertex   7.395980e-01 -9.972612e+00 3.300000e+01
      vertex   2.643560e+00 -9.644252e+00 3.300000e+01
    endloop
  endfacet
  facet normal -0.000000e+00 0.000000e+00 1.000000e+00
    outer loop
      vertex   -4.851185e+00 -8.744484e+00 3.300000e+01
      vertex   -3.079047e+00 -9.514172e+00 3.300000e+01
      vertex   2.643560e+00 9.644252e+00 3.300000e+01
    endloop
  endfacet
  facet normal 1.000000e+00 6.556638e-17 -0.000000e+00
    outer loop
      vertex   7.500000e+00 -6.614378e+00 1.410000e+00
      vertex   7.500000e+00 6.614378e+00 1.410000e+00
      vertex   7.500000e+00 -6.614378e+00 3.300000e+01
    endloop
  endfacet
  facet normal 1.000000e+00 6.556638e-17 -0.000000e+00
    outer loop
      vertex   7.500000e+00 6.614378e+00 1.410000e+00
      vertex   7.500000e+00 6.614378e+00 3.300000e+01
      vertex   7.500000e+00 -6.614378e+00 3.300000e+01
    endloop
  endfacet
  facet normal 6.922916e-01 -7.216179e-01 0.000000e+00
    outer loop
      vertex   7.500000e+00 -6.614378e+00 1.410000e+00
      vertex   7.500000e+00 -6.614378e+00 3.300000e+01
      vertex   6.297704e+00 -7.767813e+00 1.410000e+00
    endloop
  endfacet
  facet normal 6.825949e-01 -7.307967e-01 7.041918e-04
    outer loop
      vertex   7.500000e+00 -6.614378e+00 3.300000e+01
      vertex   6.088050e+00 -7.933199e+00 3.300000e+01
      vertex   6.297704e+00 -7.767813e+00 1.410000e+00
    endloop
  endfacet
  facet normal 6.193429e-01 -7.851206e-01 1.648046e-17
    outer loop
      vertex   6.297704e+00 -7.767813e+00 1.410000e+00
      vertex   6.088050e+00 -7.933199e+00 3.300000e+01
      vertex   6.088050e+00 -7.933199e+00 1.410000e+00
    endloop
  endfacet
  facet normal 5.396237e-01 -8.419063e-01 1.481637e-17
    outer loop
      vertex   6.088050e+00 -7.933199e+00 3.300000e+01
      vertex   4.665859e+00 -8.844759e+00 1.410000e+00
      vertex   6.088050e+00 -7.933199e+00 1.410000e+00
    endloop
  endfacet
  facet normal 3.665706e-01 -9.303902e-01 3.474540e-18
    outer loop
      vertex   2.855651e+00 -9.583593e+00 1.410000e+00
      vertex   4.448840e+00 -8.955882e+00 1.410000e+00
      vertex   4.448840e+00 -8.955882e+00 3.300000e+01
    endloop
  endfacet
  facet normal 4.557688e-01 -8.900982e-01 0.000000e+00
    outer loop
      vertex   4.448840e+00 -8.955882e+00 1.410000e+00
      vertex   4.665859e+00 -8.844759e+00 1.410000e+00
      vertex   4.448840e+00 -8.955882e+00 3.300000e+01
    endloop
  endfacet
  facet normal 5.293201e-01 -8.484220e-01 6.518905e-04
    outer loop
      vertex   4.448840e+00 -8.955882e+00 3.300000e+01
      vertex   4.665859e+00 -8.844759e+00 1.410000e+00
      vertex   6.088050e+00 -7.933199e+00 3.300000e+01
    endloop
  endfacet
  facet normal 1.796697e-01 -9.837270e-01 -5.559486e-17
    outer loop
      vertex   9.362794e-01 -9.956073e+00 1.410000e+00
      vertex   2.643560e+00 -9.644252e+00 1.410000e+00
      vertex   2.643560e+00 -9.644252e+00 3.300000e+01
    endloop
  endfacet
  facet normal 2.749773e-01 -9.614507e-01 -5.279681e-17
    outer loop
      vertex   2.643560e+00 -9.644252e+00 1.410000e+00
      vertex   2.855651e+00 -9.583593e+00 1.410000e+00
      vertex   2.643560e+00 -9.644252e+00 3.300000e+01
    endloop
  endfacet
  facet normal 3.562863e-01 -9.343767e-01 5.978867e-04
    outer loop
      vertex   2.643560e+00 -9.644252e+00 3.300000e+01
      vertex   2.855651e+00 -9.583593e+00 1.410000e+00
      vertex   4.448840e+00 -8.955882e+00 3.300000e+01
    endloop
  endfacet
  facet normal -1.401860e-02 -9.999017e-01 5.505417e-17
    outer loop
      vertex   -1.018884e+00 -9.947958e+00 1.410000e+00
      vertex   7.395980e-01 -9.972612e+00 1.410000e+00
      vertex   7.395980e-01 -9.972612e+00 3.300000e+01
    endloop
  endfacet
  facet normal 8.379795e-02 -9.964828e-01 5.385774e-17
    outer loop
      vertex   7.395980e-01 -9.972612e+00 1.410000e+00
      vertex   9.362794e-01 -9.956073e+00 1.410000e+00
      vertex   7.395980e-01 -9.972612e+00 3.300000e+01
    endloop
  endfacet
  facet normal 1.699527e-01 -9.854521e-01 5.421807e-04
    outer loop
      vertex   7.395980e-01 -9.972612e+00 3.300000e+01
      vertex   9.362794e-01 -9.956073e+00 1.410000e+00
      vertex   2.643560e+00 -9.644252e+00 3.300000e+01
    endloop
  endfacet
  facet normal -2.071773e-01 -9.783034e-01 -5.559938e-17
    outer loop
      vertex   -2.935098e+00 -9.559561e+00 1.410000e+00
      vertex   -1.191972e+00 -9.928706e+00 1.410000e+00
      vertex   -1.191972e+00 -9.928706e+00 3.300000e+01
    endloop
  endfacet
  facet normal -1.105470e-01 -9.938709e-01 -5.609475e-17
    outer loop
      vertex   -1.191972e+00 -9.928706e+00 1.410000e+00
      vertex   -1.018884e+00 -9.947958e+00 1.410000e+00
      vertex   -1.191972e+00 -9.928706e+00 3.300000e+01
    endloop
  endfacet
  facet normal -2.272499e-02 -9.997416e-01 4.847729e-04
    outer loop
      vertex   -1.191972e+00 -9.928706e+00 3.300000e+01
      vertex   -1.018884e+00 -9.947958e+00 1.410000e+00
      vertex   7.395980e-01 -9.972612e+00 3.300000e+01
    endloop
  endfacet
  facet normal -4.795173e-01 -8.775151e-01 5.519407e-03
    outer loop
      vertex   -4.851185e+00 -8.744484e+00 1.410000e+00
      vertex   -4.739111e+00 -8.805727e+00 1.410000e+00
      vertex   -3.079047e+00 -9.514172e+00 3.300000e+01
    endloop
  endfacet
  facet normal -3.925095e-01 -9.197479e-01 0.000000e+00
    outer loop
      vertex   -4.739111e+00 -8.805727e+00 1.410000e+00
      vertex   -3.079047e+00 -9.514172e+00 1.410000e+00
      vertex   -3.079047e+00 -9.514172e+00 3.300000e+01
    endloop
  endfacet
  facet normal -2.145544e-01 -9.767120e-01 -0.000000e+00
    outer loop
      vertex   -3.079047e+00 -9.514172e+00 3.300000e+01
      vertex   -3.079047e+00 -9.514172e+00 1.410000e+00
      vertex   -1.191972e+00 -9.928706e+00 3.300000e+01
    endloop
  endfacet
  facet normal -3.007113e-01 -9.536996e-01 5.448685e-03
    outer loop
      vertex   -3.079047e+00 -9.514172e+00 1.410000e+00
      vertex   -2.935098e+00 -9.559561e+00 1.410000e+00
      vertex   -1.191972e+00 -9.928706e+00 3.300000e+01
    endloop
  endfacet
  facet normal -6.402084e-01 -7.681809e-01 5.590121e-03
    outer loop
      vertex   -6.442233e+00 -7.648375e+00 1.410000e+00
      vertex   -6.361961e+00 -7.715274e+00 1.410000e+00
      vertex   -4.851185e+00 -8.744484e+00 3.300000e+01
    endloop
  endfacet
  facet normal -5.630140e-01 -8.264474e-01 1.390100e-17
    outer loop
      vertex   -6.361961e+00 -7.715274e+00 1.410000e+00
      vertex   -4.851185e+00 -8.744484e+00 1.410000e+00
      vertex   -4.851185e+00 -8.744484e+00 3.300000e+01
    endloop
  endfacet
  facet normal -3.983748e-01 -9.172227e-01 1.093812e-17
    outer loop
      vertex   -4.851185e+00 -8.744484e+00 3.300000e+01
      vertex   -4.851185e+00 -8.744484e+00 1.410000e+00
      vertex   -3.079047e+00 -9.514172e+00 3.300000e+01
    endloop
  endfacet
  facet normal -7.767145e-01 -6.298274e-01 5.660828e-03
    outer loop
      vertex   -7.792799e+00 -6.266760e+00 1.410000e+00
      vertex   -7.741610e+00 -6.329887e+00 1.410000e+00
      vertex   -6.442233e+00 -7.648375e+00 3.300000e+01
    endloop
  endfacet
  facet normal -7.122496e-01 -7.019263e-01 -1.737699e-17
    outer loop
      vertex   -7.741610e+00 -6.329887e+00 1.410000e+00
      vertex   -6.442233e+00 -7.648375e+00 1.410000e+00
      vertex   -6.442233e+00 -7.648375e+00 3.300000e+01
    endloop
  endfacet
  facet normal -5.673243e-01 -8.234945e-01 -1.557693e-17
    outer loop
      vertex   -6.442233e+00 -7.648375e+00 3.300000e+01
      vertex   -6.442233e+00 -7.648375e+00 1.410000e+00
      vertex   -4.851185e+00 -8.744484e+00 3.300000e+01
    endloop
  endfacet
  facet normal -7.767269e-01 6.298375e-01 -2.168412e-19
    outer loop
      vertex   -7.741610e+00 6.329887e+00 1.410000e+00
      vertex   -7.792799e+00 6.266760e+00 1.410000e+00
      vertex   -7.792799e+00 6.266760e+00 3.300000e+01
    endloop
  endfacet
  facet normal -8.345788e-01 5.508886e-01 0.000000e+00
    outer loop
      vertex   -7.792799e+00 6.266760e+00 1.410000e+00
      vertex   -8.825319e+00 4.702526e+00 1.410000e+00
      vertex   -7.792799e+00 6.266760e+00 3.300000e+01
    endloop
  endfacet
  facet normal -8.361743e-01 5.484638e-01 1.722169e-04
    outer loop
      vertex   -7.792799e+00 6.266760e+00 3.300000e+01
      vertex   -8.825319e+00 4.702526e+00 1.410000e+00
      vertex   -8.852469e+00 4.651213e+00 3.300000e+01
    endloop
  endfacet
  facet normal -9.242761e-01 3.817247e-01 -1.743411e-04
    outer loop
      vertex   -8.825319e+00 4.702526e+00 1.410000e+00
      vertex   -9.571659e+00 2.895399e+00 1.410000e+00
      vertex   -8.852469e+00 4.651213e+00 3.300000e+01
    endloop
  endfacet
  facet normal -9.260389e-01 3.774280e-01 1.046047e-04
    outer loop
      vertex   -8.852469e+00 4.651213e+00 3.300000e+01
      vertex   -9.571659e+00 2.895399e+00 1.410000e+00
      vertex   -9.581686e+00 2.862042e+00 3.300000e+01
    endloop
  endfacet
  facet normal -9.808863e-01 1.945815e-01 -1.058791e-04
    outer loop
      vertex   -9.571659e+00 2.895399e+00 1.410000e+00
      vertex   -9.952101e+00 9.775900e-01 1.410000e+00
      vertex   -9.581686e+00 2.862042e+00 3.300000e+01
    endloop
  endfacet
  facet normal -9.813355e-01 1.923033e-01 3.529305e-05
    outer loop
      vertex   -9.581686e+00 2.862042e+00 3.300000e+01
      vertex   -9.952101e+00 9.775900e-01 1.410000e+00
      vertex   -9.953229e+00 9.660345e-01 3.300000e+01
    endloop
  endfacet
  facet normal -1.000000e+00 8.872449e-16 -3.571778e-05
    outer loop
      vertex   -9.952101e+00 9.775900e-01 1.410000e+00
      vertex   -9.952101e+00 -9.775900e-01 1.410000e+00
      vertex   -9.953229e+00 9.660345e-01 3.300000e+01
    endloop
  endfacet
  facet normal -1.000000e+00 -1.795716e-15 -3.571778e-05
    outer loop
      vertex   -9.953229e+00 9.660345e-01 3.300000e+01
      vertex   -9.952101e+00 -9.775900e-01 1.410000e+00
      vertex   -9.953229e+00 -9.660345e-01 3.300000e+01
    endloop
  endfacet
  facet normal -9.808864e-01 -1.945815e-01 3.614247e-05
    outer loop
      vertex   -9.952101e+00 -9.775900e-01 1.410000e+00
      vertex   -9.571659e+00 -2.895399e+00 1.410000e+00
      vertex   -9.953229e+00 -9.660345e-01 3.300000e+01
    endloop
  endfacet
  facet normal -9.813355e-01 -1.923033e-01 -1.084274e-04
    outer loop
      vertex   -9.953229e+00 -9.660345e-01 3.300000e+01
      vertex   -9.571659e+00 -2.895399e+00 1.410000e+00
      vertex   -9.581686e+00 -2.862042e+00 3.300000e+01
    endloop
  endfacet
  facet normal -9.242761e-01 -3.817247e-01 1.097013e-04
    outer loop
      vertex   -9.571659e+00 -2.895399e+00 1.410000e+00
      vertex   -8.825319e+00 -4.702526e+00 1.410000e+00
      vertex   -9.581686e+00 -2.862042e+00 3.300000e+01
    endloop
  endfacet
  facet normal -9.260389e-01 -3.774280e-01 -1.828353e-04
    outer loop
      vertex   -9.581686e+00 -2.862042e+00 3.300000e+01
      vertex   -8.825319e+00 -4.702526e+00 1.410000e+00
      vertex   -8.852469e+00 -4.651213e+00 3.300000e+01
    endloop
  endfacet
  facet normal -8.345787e-01 -5.508886e-01 1.775269e-04
    outer loop
      vertex   -8.825319e+00 -4.702526e+00 1.410000e+00
      vertex   -7.792799e+00 -6.266760e+00 1.410000e+00
      vertex   -8.852469e+00 -4.651213e+00 3.300000e+01
    endloop
  endfacet
  facet normal -8.361743e-01 -5.484639e-01 0.000000e+00
    outer loop
      vertex   -8.852469e+00 -4.651213e+00 3.300000e+01
      vertex   -7.792799e+00 -6.266760e+00 1.410000e+00
      vertex   -7.792799e+00 -6.266760e+00 3.300000e+01
    endloop
  endfacet
  facet normal -7.150961e-01 -6.990261e-01 0.000000e+00
    outer loop
      vertex   -7.792799e+00 -6.266760e+00 1.410000e+00
      vertex   -6.442233e+00 -7.648375e+00 3.300000e+01
      vertex   -7.792799e+00 -6.266760e+00 3.300000e+01
    endloop
  endfacet
  facet normal -6.402184e-01 7.681929e-01 3.903149e-17
    outer loop
      vertex   -6.361961e+00 7.715274e+00 1.410000e+00
      vertex   -6.442233e+00 7.648375e+00 1.410000e+00
      vertex   -6.442233e+00 7.648375e+00 3.300000e+01
    endloop
  endfacet
  facet normal -7.122496e-01 7.019263e-01 3.882881e-17
    outer loop
      vertex   -6.442233e+00 7.648375e+00 1.410000e+00
      vertex   -7.741610e+00 6.329887e+00 1.410000e+00
      vertex   -6.442233e+00 7.648375e+00 3.300000e+01
    endloop
  endfacet
  facet normal -7.150961e-01 6.990261e-01 2.381293e-04
    outer loop
      vertex   -6.442233e+00 7.648375e+00 3.300000e+01
      vertex   -7.741610e+00 6.329887e+00 1.410000e+00
      vertex   -7.792799e+00 6.266760e+00 3.300000e+01
    endloop
  endfacet
  facet normal -4.795246e-01 8.775285e-01 1.301053e-17
    outer loop
      vertex   -4.739111e+00 8.805727e+00 1.410000e+00
      vertex   -4.851185e+00 8.744484e+00 1.410000e+00
      vertex   -4.851185e+00 8.744484e+00 3.300000e+01
    endloop
  endfacet
  facet normal -5.630140e-01 8.264474e-01 1.545859e-17
    outer loop
      vertex   -4.851185e+00 8.744484e+00 1.410000e+00
      vertex   -6.361961e+00 7.715274e+00 1.410000e+00
      vertex   -4.851185e+00 8.744484e+00 3.300000e+01
    endloop
  endfacet
  facet normal -5.673242e-01 8.234945e-01 3.023414e-04
    outer loop
      vertex   -4.851185e+00 8.744484e+00 3.300000e+01
      vertex   -6.361961e+00 7.715274e+00 1.410000e+00
      vertex   -6.442233e+00 7.648375e+00 3.300000e+01
    endloop
  endfacet
  facet normal -3.007158e-01 9.537138e-01 0.000000e+00
    outer loop
      vertex   -2.935098e+00 9.559561e+00 1.410000e+00
      vertex   -3.079047e+00 9.514172e+00 1.410000e+00
      vertex   -3.079047e+00 9.514172e+00 3.300000e+01
    endloop
  endfacet
  facet normal -3.925095e-01 9.197479e-01 0.000000e+00
    outer loop
      vertex   -3.079047e+00 9.514172e+00 1.410000e+00
      vertex   -4.739111e+00 8.805727e+00 1.410000e+00
      vertex   -3.079047e+00 9.514172e+00 3.300000e+01
    endloop
  endfacet
  facet normal -3.983748e-01 9.172227e-01 3.648529e-04
    outer loop
      vertex   -3.079047e+00 9.514172e+00 3.300000e+01
      vertex   -4.739111e+00 8.805727e+00 1.410000e+00
      vertex   -4.851185e+00 8.744484e+00 3.300000e+01
    endloop
  endfacet
  facet normal -1.105470e-01 9.938709e-01 6.505312e-19
    outer loop
      vertex   -1.018884e+00 9.947958e+00 1.410000e+00
      vertex   -1.191972e+00 9.928706e+00 1.410000e+00
      vertex   -1.191972e+00 9.928706e+00 3.300000e+01
    endloop
  endfacet
  facet normal -2.071773e-01 9.783034e-01 1.422109e-18
    outer loop
      vertex   -1.191972e+00 9.928706e+00 1.410000e+00
      vertex   -2.935098e+00 9.559561e+00 1.410000e+00
      vertex   -1.191972e+00 9.928706e+00 3.300000e+01
    endloop
  endfacet
  facet normal -2.145544e-01 9.767119e-01 4.256635e-04
    outer loop
      vertex   -1.191972e+00 9.928706e+00 3.300000e+01
      vertex   -2.935098e+00 9.559561e+00 1.410000e+00
      vertex   -3.079047e+00 9.514172e+00 3.300000e+01
    endloop
  endfacet
  facet normal 8.379795e-02 9.964828e-01 -5.475328e-17
    outer loop
      vertex   9.362794e-01 9.956073e+00 1.410000e+00
      vertex   7.395980e-01 9.972612e+00 1.410000e+00
      vertex   7.395980e-01 9.972612e+00 3.300000e+01
    endloop
  endfacet
  facet normal -1.401860e-02 9.999017e-01 -5.490829e-17
    outer loop
      vertex   7.395980e-01 9.972612e+00 1.410000e+00
      vertex   -1.018884e+00 9.947958e+00 1.410000e+00
      vertex   7.395980e-01 9.972612e+00 3.300000e+01
    endloop
  endfacet
  facet normal -2.272499e-02 9.997416e-01 4.847729e-04
    outer loop
      vertex   7.395980e-01 9.972612e+00 3.300000e+01
      vertex   -1.018884e+00 9.947958e+00 1.410000e+00
      vertex   -1.191972e+00 9.928706e+00 3.300000e+01
    endloop
  endfacet
  facet normal 2.749773e-01 9.614507e-01 -2.168457e-19
    outer loop
      vertex   2.855651e+00 9.583593e+00 1.410000e+00
      vertex   2.643560e+00 9.644252e+00 1.410000e+00
      vertex   2.643560e+00 9.644252e+00 3.300000e+01
    endloop
  endfacet
  facet normal 1.796697e-01 9.837270e-01 -0.000000e+00
    outer loop
      vertex   2.643560e+00 9.644252e+00 1.410000e+00
      vertex   9.362794e-01 9.956073e+00 1.410000e+00
      vertex   2.643560e+00 9.644252e+00 3.300000e+01
    endloop
  endfacet
  facet normal 1.699527e-01 9.854521e-01 5.421807e-04
    outer loop
      vertex   2.643560e+00 9.644252e+00 3.300000e+01
      vertex   9.362794e-01 9.956073e+00 1.410000e+00
      vertex   7.395980e-01 9.972612e+00 3.300000e+01
    endloop
  endfacet
  facet normal 4.557688e-01 8.900982e-01 -6.158452e-17
    outer loop
      vertex   4.665859e+00 8.844759e+00 1.410000e+00
      vertex   4.448840e+00 8.955882e+00 1.410000e+00
      vertex   4.448840e+00 8.955882e+00 3.300000e+01
    endloop
  endfacet
  facet normal 3.665706e-01 9.303902e-01 -6.115603e-17
    outer loop
      vertex   4.448840e+00 8.955882e+00 1.410000e+00
      vertex   2.855651e+00 9.583593e+00 1.410000e+00
      vertex   4.448840e+00 8.955882e+00 3.300000e+01
    endloop
  endfacet
  facet normal 3.562863e-01 9.343767e-01 5.978867e-04
    outer loop
      vertex   4.448840e+00 8.955882e+00 3.300000e+01
      vertex   2.855651e+00 9.583593e+00 1.410000e+00
      vertex   2.643560e+00 9.644252e+00 3.300000e+01
    endloop
  endfacet
  facet normal 6.193429e-01 7.851206e-01 -8.673927e-19
    outer loop
      vertex   6.297704e+00 7.767813e+00 1.410000e+00
      vertex   6.088050e+00 7.933199e+00 1.410000e+00
      vertex   6.088050e+00 7.933199e+00 3.300000e+01
    endloop
  endfacet
  facet normal 5.396237e-01 8.419063e-01 -0.000000e+00
    outer loop
      vertex   6.088050e+00 7.933199e+00 1.410000e+00
      vertex   4.665859e+00 8.844759e+00 1.410000e+00
      vertex   6.088050e+00 7.933199e+00 3.300000e+01
    endloop
  endfacet
  facet normal 5.293201e-01 8.484220e-01 6.518905e-04
    outer loop
      vertex   6.088050e+00 7.933199e+00 3.300000e+01
      vertex   4.665859e+00 8.844759e+00 1.410000e+00
      vertex   4.448840e+00 8.955882e+00 3.300000e+01
    endloop
  endfacet
  facet normal 6.922916e-01 7.216179e-01 -0.000000e+00
    outer loop
      vertex   7.500000e+00 6.614378e+00 1.410000e+00
      vertex   6.297704e+00 7.767813e+00 1.410000e+00
      vertex   7.500000e+00 6.614378e+00 3.300000e+01
    endloop
  endfacet
  facet normal 6.825949e-01 7.307967e-01 7.041918e-04
    outer loop
      vertex   6.297704e+00 7.767813e+00 1.410000e+00
      vertex   6.088050e+00 7.933199e+00 3.300000e+01
      vertex   7.500000e+00 6.614378e+00 3.300000e+01
    endloop
  endfacet
  facet normal 7.071068e-01 4.636244e-17 -7.071068e-01
    outer loop
      vertex   7.500000e+00 6.614378e+00 1.410000e+00
      vertex   7.500000e+00 -6.614378e+00 1.410000e+00
      vertex   6.090000e+00 6.058052e+00 -1.726752e-16
    endloop
  endfacet
  facet normal 7.071068e-01 1.830569e-16 -7.071068e-01
    outer loop
      vertex   7.500000e+00 -6.614378e+00 1.410000e+00
      vertex   6.090000e+00 -6.058052e+00 0.000000e+00
      vertex   6.090000e+00 6.058052e+00 -1.726752e-16
    endloop
  endfacet
  facet normal 4.951828e-01 5.161594e-01 -6.988373e-01
    outer loop
      vertex   7.500000e+00 6.614378e+00 1.410000e+00
      vertex   6.090000e+00 6.058052e+00 -1.726752e-16
      vertex   6.297704e+00 7.767813e+00 1.410000e+00
    endloop
  endfacet
  facet normal 4.743271e-01 5.250968e-01 -7.066026e-01
    outer loop
      vertex   6.090000e+00 6.058052e+00 -1.726752e-16
      vertex   5.409728e+00 6.672552e+00 -2.168404e-16
      vertex   6.297704e+00 7.767813e+00 1.410000e+00
    endloop
  endfacet
  facet normal 4.379611e-01 5.551888e-01 -7.070753e-01
    outer loop
      vertex   6.297704e+00 7.767813e+00 1.410000e+00
      vertex   5.409728e+00 6.672552e+00 -2.168404e-16
      vertex   6.088050e+00 7.933199e+00 1.410000e+00
    endloop
  endfacet
  facet normal 3.873099e-01 5.868725e-01 -7.110356e-01
    outer loop
      vertex   5.409728e+00 6.672552e+00 -2.168404e-16
      vertex   4.007973e+00 7.597648e+00 -2.168404e-16
      vertex   6.088050e+00 7.933199e+00 1.410000e+00
    endloop
  endfacet
  facet normal 3.822539e-01 5.963822e-01 -7.058400e-01
    outer loop
      vertex   6.088050e+00 7.933199e+00 1.410000e+00
      vertex   4.007973e+00 7.597648e+00 -2.168404e-16
      vertex   4.665859e+00 8.844759e+00 1.410000e+00
    endloop
  endfacet
  facet normal 3.222892e-01 6.294178e-01 -7.070805e-01
    outer loop
      vertex   4.007973e+00 7.597648e+00 -2.168404e-16
      vertex   4.448840e+00 8.955882e+00 1.410000e+00
      vertex   4.665859e+00 8.844759e+00 1.410000e+00
    endloop
  endfacet
  facet normal 1.944442e-01 6.798690e-01 -7.070853e-01
    outer loop
      vertex   2.643560e+00 9.644252e+00 1.410000e+00
      vertex   2.855651e+00 9.583593e+00 1.410000e+00
      vertex   2.453004e+00 8.232306e+00 -2.168404e-16
    endloop
  endfacet
  facet normal 2.596809e-01 6.590942e-01 -7.058049e-01
    outer loop
      vertex   2.855651e+00 9.583593e+00 1.410000e+00
      vertex   4.448840e+00 8.955882e+00 1.410000e+00
      vertex   2.453004e+00 8.232306e+00 -2.168404e-16
    endloop
  endfacet
  facet normal 2.658707e-01 6.514063e-01 -7.106213e-01
    outer loop
      vertex   2.453004e+00 8.232306e+00 -2.168404e-16
      vertex   4.448840e+00 8.955882e+00 1.410000e+00
      vertex   4.007973e+00 7.597648e+00 -2.168404e-16
    endloop
  endfacet
  facet normal 5.925554e-02 7.046369e-01 -7.070896e-01
    outer loop
      vertex   7.395980e-01 9.972612e+00 1.410000e+00
      vertex   9.362794e-01 9.956073e+00 1.410000e+00
      vertex   8.042640e-01 8.552266e+00 -2.168404e-16
    endloop
  endfacet
  facet normal 1.272855e-01 6.969132e-01 -7.057693e-01
    outer loop
      vertex   9.362794e-01 9.956073e+00 1.410000e+00
      vertex   2.643560e+00 9.644252e+00 1.410000e+00
      vertex   8.042640e-01 8.552266e+00 -2.168404e-16
    endloop
  endfacet
  facet normal 1.341197e-01 6.911136e-01 -7.101928e-01
    outer loop
      vertex   8.042640e-01 8.552266e+00 -2.168404e-16
      vertex   2.643560e+00 9.644252e+00 1.410000e+00
      vertex   2.453004e+00 8.232306e+00 -2.168404e-16
    endloop
  endfacet
  facet normal -7.817001e-02 7.027862e-01 -7.070934e-01
    outer loop
      vertex   -1.191972e+00 9.928706e+00 1.410000e+00
      vertex   -1.018884e+00 9.947958e+00 1.410000e+00
      vertex   -8.752212e-01 8.545296e+00 -2.168404e-16
    endloop
  endfacet
  facet normal -9.931863e-03 7.084080e-01 -7.057333e-01
    outer loop
      vertex   -1.018884e+00 9.947958e+00 1.410000e+00
      vertex   7.395980e-01 9.972612e+00 1.410000e+00
      vertex   -8.752212e-01 8.545296e+00 -2.168404e-16
    endloop
  endfacet
  facet normal -2.923554e-03 7.044473e-01 -7.097503e-01
    outer loop
      vertex   -8.752212e-01 8.545296e+00 -2.168404e-16
      vertex   7.395980e-01 9.972612e+00 1.410000e+00
      vertex   8.042640e-01 8.552266e+00 -2.168404e-16
    endloop
  endfacet
  facet normal -2.126412e-01 6.743871e-01 -7.070967e-01
    outer loop
      vertex   -3.079047e+00 9.514172e+00 1.410000e+00
      vertex   -2.935098e+00 9.559561e+00 1.410000e+00
      vertex   -2.521249e+00 8.211663e+00 -2.168404e-16
    endloop
  endfacet
  facet normal -1.467880e-01 6.931417e-01 -7.056967e-01
    outer loop
      vertex   -2.935098e+00 9.559561e+00 1.410000e+00
      vertex   -1.191972e+00 9.928706e+00 1.410000e+00
      vertex   -2.521249e+00 8.211663e+00 -2.168404e-16
    endloop
  endfacet
  facet normal -1.400314e-01 6.908646e-01 -7.092935e-01
    outer loop
      vertex   -2.521249e+00 8.211663e+00 -2.168404e-16
      vertex   -1.191972e+00 9.928706e+00 1.410000e+00
      vertex   -8.752212e-01 8.545296e+00 -2.168404e-16
    endloop
  endfacet
  facet normal -3.390785e-01 6.205126e-01 -7.070996e-01
    outer loop
      vertex   -4.851185e+00 8.744484e+00 1.410000e+00
      vertex   -4.739111e+00 8.805727e+00 1.410000e+00
      vertex   -4.070896e+00 7.564119e+00 -2.168404e-16
    endloop
  endfacet
  facet normal -2.781130e-01 6.516882e-01 -7.056597e-01
    outer loop
      vertex   -4.739111e+00 8.805727e+00 1.410000e+00
      vertex   -3.079047e+00 9.514172e+00 1.410000e+00
      vertex   -4.070896e+00 7.564119e+00 -2.168404e-16
    endloop
  endfacet
  facet normal -2.719670e-01 6.508491e-01 -7.088225e-01
    outer loop
      vertex   -4.070896e+00 7.564119e+00 -2.168404e-16
      vertex   -3.079047e+00 9.514172e+00 1.410000e+00
      vertex   -2.521249e+00 8.211663e+00 -2.168404e-16
    endloop
  endfacet
  facet normal -4.527059e-01 5.431981e-01 -7.071020e-01
    outer loop
      vertex   -6.442233e+00 7.648375e+00 1.410000e+00
      vertex   -6.361961e+00 7.715274e+00 1.410000e+00
      vertex   -5.464924e+00 6.627420e+00 -2.168404e-16
    endloop
  endfacet
  facet normal -3.989451e-01 5.856109e-01 -7.056222e-01
    outer loop
      vertex   -6.361961e+00 7.715274e+00 1.410000e+00
      vertex   -4.851185e+00 8.744484e+00 1.410000e+00
      vertex   -5.464924e+00 6.627420e+00 -2.168404e-16
    endloop
  endfacet
  facet normal -3.936838e-01 5.858938e-01 -7.083371e-01
    outer loop
      vertex   -5.464924e+00 6.627420e+00 -2.168404e-16
      vertex   -4.851185e+00 8.744484e+00 1.410000e+00
      vertex   -4.070896e+00 7.564119e+00 -2.168404e-16
    endloop
  endfacet
  facet normal -5.492311e-01 4.453642e-01 -7.071039e-01
    outer loop
      vertex   -7.792799e+00 6.266760e+00 1.410000e+00
      vertex   -7.741610e+00 6.329887e+00 1.410000e+00
      vertex   -6.650043e+00 5.437373e+00 -2.168404e-16
    endloop
  endfacet
  facet normal -5.047187e-01 4.974033e-01 -7.055842e-01
    outer loop
      vertex   -7.741610e+00 6.329887e+00 1.410000e+00
      vertex   -6.442233e+00 7.648375e+00 1.410000e+00
      vertex   -6.650043e+00 5.437373e+00 -2.168404e-16
    endloop
  endfacet
  facet normal -5.005183e-01 4.984454e-01 -7.078373e-01
    outer loop
      vertex   -6.650043e+00 5.437373e+00 -2.168404e-16
      vertex   -6.442233e+00 7.648375e+00 1.410000e+00
      vertex   -5.464924e+00 6.627420e+00 -2.168404e-16
    endloop
  endfacet
  facet normal -5.914363e-01 -3.903952e-01 -7.055457e-01
    outer loop
      vertex   -7.792799e+00 -6.266760e+00 1.410000e+00
      vertex   -8.825319e+00 -4.702526e+00 1.410000e+00
      vertex   -7.580949e+00 -4.039470e+00 -2.168404e-16
    endloop
  endfacet
  facet normal -6.551290e-01 -2.705673e-01 -7.054072e-01
    outer loop
      vertex   -8.825319e+00 -4.702526e+00 1.410000e+00
      vertex   -9.571659e+00 -2.895399e+00 1.410000e+00
      vertex   -7.580949e+00 -4.039470e+00 -2.168404e-16
    endloop
  endfacet
  facet normal -6.551290e-01 -2.705673e-01 -7.054072e-01
    outer loop
      vertex   -7.580949e+00 -4.039470e+00 -2.168404e-16
      vertex   -9.571659e+00 -2.895399e+00 1.410000e+00
      vertex   -8.222055e+00 -2.487148e+00 -2.168404e-16
    endloop
  endfacet
  facet normal -6.952545e-01 -1.379198e-01 -7.054072e-01
    outer loop
      vertex   -9.571659e+00 -2.895399e+00 1.410000e+00
      vertex   -9.952101e+00 -9.775900e-01 1.410000e+00
      vertex   -8.222055e+00 -2.487148e+00 -2.168404e-16
    endloop
  endfacet
  facet normal -6.952545e-01 -1.379198e-01 -7.054072e-01
    outer loop
      vertex   -8.222055e+00 -2.487148e+00 -2.168404e-16
      vertex   -9.952101e+00 -9.775900e-01 1.410000e+00
      vertex   -8.548855e+00 -8.397498e-01 -2.168404e-16
    endloop
  endfacet
  facet normal -7.088023e-01 6.288812e-16 -7.054072e-01
    outer loop
      vertex   -9.952101e+00 -9.775900e-01 1.410000e+00
      vertex   -9.952101e+00 9.775900e-01 1.410000e+00
      vertex   -8.548855e+00 -8.397498e-01 -2.168404e-16
    endloop
  endfacet
  facet normal -7.088023e-01 7.321085e-16 -7.054072e-01
    outer loop
      vertex   -8.548855e+00 -8.397498e-01 -2.168404e-16
      vertex   -9.952101e+00 9.775900e-01 1.410000e+00
      vertex   -8.548855e+00 8.397498e-01 -2.168404e-16
    endloop
  endfacet
  facet normal -6.952545e-01 1.379198e-01 -7.054072e-01
    outer loop
      vertex   -9.952101e+00 9.775900e-01 1.410000e+00
      vertex   -9.571659e+00 2.895399e+00 1.410000e+00
      vertex   -8.548855e+00 8.397498e-01 -2.168404e-16
    endloop
  endfacet
  facet normal -6.952545e-01 1.379198e-01 -7.054072e-01
    outer loop
      vertex   -8.548855e+00 8.397498e-01 -2.168404e-16
      vertex   -9.571659e+00 2.895399e+00 1.410000e+00
      vertex   -8.222055e+00 2.487148e+00 -2.168404e-16
    endloop
  endfacet
  facet normal -6.551290e-01 2.705673e-01 -7.054072e-01
    outer loop
      vertex   -9.571659e+00 2.895399e+00 1.410000e+00
      vertex   -8.825319e+00 4.702526e+00 1.410000e+00
      vertex   -8.222055e+00 2.487148e+00 -2.168404e-16
    endloop
  endfacet
  facet normal -6.551290e-01 2.705673e-01 -7.054072e-01
    outer loop
      vertex   -8.222055e+00 2.487148e+00 -2.168404e-16
      vertex   -8.825319e+00 4.702526e+00 1.410000e+00
      vertex   -7.580949e+00 4.039470e+00 -2.168404e-16
    endloop
  endfacet
  facet normal -5.914363e-01 3.903952e-01 -7.055457e-01
    outer loop
      vertex   -8.825319e+00 4.702526e+00 1.410000e+00
      vertex   -7.792799e+00 6.266760e+00 1.410000e+00
      vertex   -7.580949e+00 4.039470e+00 -2.168404e-16
    endloop
  endfacet
  facet normal -5.883684e-01 3.918121e-01 -7.073230e-01
    outer loop
      vertex   -7.580949e+00 4.039470e+00 -2.168404e-16
      vertex   -7.792799e+00 6.266760e+00 1.410000e+00
      vertex   -6.650043e+00 5.437373e+00 -2.168404e-16
    endloop
  endfacet
  facet normal -5.047187e-01 -4.974033e-01 -7.055842e-01
    outer loop
      vertex   -6.442233e+00 -7.648375e+00 1.410000e+00
      vertex   -7.741610e+00 -6.329887e+00 1.410000e+00
      vertex   -6.650043e+00 -5.437373e+00 -2.168404e-16
    endloop
  endfacet
  facet normal -5.492311e-01 -4.453642e-01 -7.071039e-01
    outer loop
      vertex   -7.741610e+00 -6.329887e+00 1.410000e+00
      vertex   -7.792799e+00 -6.266760e+00 1.410000e+00
      vertex   -6.650043e+00 -5.437373e+00 -2.168404e-16
    endloop
  endfacet
  facet normal -5.883684e-01 -3.918121e-01 -7.073230e-01
    outer loop
      vertex   -6.650043e+00 -5.437373e+00 -2.168404e-16
      vertex   -7.792799e+00 -6.266760e+00 1.410000e+00
      vertex   -7.580949e+00 -4.039470e+00 -2.168404e-16
    endloop
  endfacet
  facet normal -3.989451e-01 -5.856109e-01 -7.056222e-01
    outer loop
      vertex   -4.851185e+00 -8.744484e+00 1.410000e+00
      vertex   -6.361961e+00 -7.715274e+00 1.410000e+00
      vertex   -5.464924e+00 -6.627420e+00 -2.168404e-16
    endloop
  endfacet
  facet normal -4.527059e-01 -5.431981e-01 -7.071020e-01
    outer loop
      vertex   -6.361961e+00 -7.715274e+00 1.410000e+00
      vertex   -6.442233e+00 -7.648375e+00 1.410000e+00
      vertex   -5.464924e+00 -6.627420e+00 -2.168404e-16
    endloop
  endfacet
  facet normal -5.005183e-01 -4.984454e-01 -7.078373e-01
    outer loop
      vertex   -5.464924e+00 -6.627420e+00 -2.168404e-16
      vertex   -6.442233e+00 -7.648375e+00 1.410000e+00
      vertex   -6.650043e+00 -5.437373e+00 -2.168404e-16
    endloop
  endfacet
  facet normal -2.781130e-01 -6.516882e-01 -7.056597e-01
    outer loop
      vertex   -3.079047e+00 -9.514172e+00 1.410000e+00
      vertex   -4.739111e+00 -8.805727e+00 1.410000e+00
      vertex   -4.070896e+00 -7.564119e+00 -2.168404e-16
    endloop
  endfacet
  facet normal -3.390785e-01 -6.205126e-01 -7.070996e-01
    outer loop
      vertex   -4.739111e+00 -8.805727e+00 1.410000e+00
      vertex   -4.851185e+00 -8.744484e+00 1.410000e+00
      vertex   -4.070896e+00 -7.564119e+00 -2.168404e-16
    endloop
  endfacet
  facet normal -3.936838e-01 -5.858938e-01 -7.083371e-01
    outer loop
      vertex   -4.070896e+00 -7.564119e+00 -2.168404e-16
      vertex   -4.851185e+00 -8.744484e+00 1.410000e+00
      vertex   -5.464924e+00 -6.627420e+00 -2.168404e-16
    endloop
  endfacet
  facet normal -1.467880e-01 -6.931417e-01 -7.056967e-01
    outer loop
      vertex   -1.191972e+00 -9.928706e+00 1.410000e+00
      vertex   -2.935098e+00 -9.559561e+00 1.410000e+00
      vertex   -2.521249e+00 -8.211663e+00 -2.168404e-16
    endloop
  endfacet
  facet normal -2.126412e-01 -6.743871e-01 -7.070967e-01
    outer loop
      vertex   -2.935098e+00 -9.559561e+00 1.410000e+00
      vertex   -3.079047e+00 -9.514172e+00 1.410000e+00
      vertex   -2.521249e+00 -8.211663e+00 -2.168404e-16
    endloop
  endfacet
  facet normal -2.719670e-01 -6.508491e-01 -7.088225e-01
    outer loop
      vertex   -2.521249e+00 -8.211663e+00 -2.168404e-16
      vertex   -3.079047e+00 -9.514172e+00 1.410000e+00
      vertex   -4.070896e+00 -7.564119e+00 -2.168404e-16
    endloop
  endfacet
  facet normal -9.931863e-03 -7.084080e-01 -7.057333e-01
    outer loop
      vertex   7.395980e-01 -9.972612e+00 1.410000e+00
      vertex   -1.018884e+00 -9.947958e+00 1.410000e+00
      vertex   -8.752212e-01 -8.545296e+00 -2.168404e-16
    endloop
  endfacet
  facet normal -7.817001e-02 -7.027862e-01 -7.070934e-01
    outer loop
      vertex   -1.018884e+00 -9.947958e+00 1.410000e+00
      vertex   -1.191972e+00 -9.928706e+00 1.410000e+00
      vertex   -8.752212e-01 -8.545296e+00 -2.168404e-16
    endloop
  endfacet
  facet normal -1.400314e-01 -6.908646e-01 -7.092935e-01
    outer loop
      vertex   -8.752212e-01 -8.545296e+00 -2.168404e-16
      vertex   -1.191972e+00 -9.928706e+00 1.410000e+00
      vertex   -2.521249e+00 -8.211663e+00 -2.168404e-16
    endloop
  endfacet
  facet normal 1.272855e-01 -6.969132e-01 -7.057693e-01
    outer loop
      vertex   2.643560e+00 -9.644252e+00 1.410000e+00
      vertex   9.362794e-01 -9.956073e+00 1.410000e+00
      vertex   8.042640e-01 -8.552266e+00 -2.168404e-16
    endloop
  endfacet
  facet normal 5.925554e-02 -7.046369e-01 -7.070896e-01
    outer loop
      vertex   9.362794e-01 -9.956073e+00 1.410000e+00
      vertex   7.395980e-01 -9.972612e+00 1.410000e+00
      vertex   8.042640e-01 -8.552266e+00 -2.168404e-16
    endloop
  endfacet
  facet normal -2.923554e-03 -7.044473e-01 -7.097503e-01
    outer loop
      vertex   8.042640e-01 -8.552266e+00 -2.168404e-16
      vertex   7.395980e-01 -9.972612e+00 1.410000e+00
      vertex   -8.752212e-01 -8.545296e+00 -2.168404e-16
    endloop
  endfacet
  facet normal 2.596809e-01 -6.590942e-01 -7.058049e-01
    outer loop
      vertex   4.448840e+00 -8.955882e+00 1.410000e+00
      vertex   2.855651e+00 -9.583593e+00 1.410000e+00
      vertex   2.453004e+00 -8.232306e+00 -2.168404e-16
    endloop
  endfacet
  facet normal 1.944442e-01 -6.798690e-01 -7.070853e-01
    outer loop
      vertex   2.855651e+00 -9.583593e+00 1.410000e+00
      vertex   2.643560e+00 -9.644252e+00 1.410000e+00
      vertex   2.453004e+00 -8.232306e+00 -2.168404e-16
    endloop
  endfacet
  facet normal 1.341197e-01 -6.911136e-01 -7.101928e-01
    outer loop
      vertex   2.453004e+00 -8.232306e+00 -2.168404e-16
      vertex   2.643560e+00 -9.644252e+00 1.410000e+00
      vertex   8.042640e-01 -8.552266e+00 -2.168404e-16
    endloop
  endfacet
  facet normal 3.822539e-01 -5.963822e-01 -7.058400e-01
    outer loop
      vertex   6.088050e+00 -7.933199e+00 1.410000e+00
      vertex   4.665859e+00 -8.844759e+00 1.410000e+00
      vertex   4.007973e+00 -7.597648e+00 -2.168404e-16
    endloop
  endfacet
  facet normal 3.222892e-01 -6.294178e-01 -7.070805e-01
    outer loop
      vertex   4.665859e+00 -8.844759e+00 1.410000e+00
      vertex   4.448840e+00 -8.955882e+00 1.410000e+00
      vertex   4.007973e+00 -7.597648e+00 -2.168404e-16
    endloop
  endfacet
  facet normal 2.658707e-01 -6.514063e-01 -7.106213e-01
    outer loop
      vertex   4.007973e+00 -7.597648e+00 -2.168404e-16
      vertex   4.448840e+00 -8.955882e+00 1.410000e+00
      vertex   2.453004e+00 -8.232306e+00 -2.168404e-16
    endloop
  endfacet
  facet normal 4.903756e-01 -5.111485e-01 -7.058746e-01
    outer loop
      vertex   7.500000e+00 -6.614378e+00 1.410000e+00
      vertex   6.297704e+00 -7.767813e+00 1.410000e+00
      vertex   5.409728e+00 -6.672552e+00 -2.168404e-16
    endloop
  endfacet
  facet normal 4.379611e-01 -5.551888e-01 -7.070753e-01
    outer loop
      vertex   6.297704e+00 -7.767813e+00 1.410000e+00
      vertex   6.088050e+00 -7.933199e+00 1.410000e+00
      vertex   5.409728e+00 -6.672552e+00 -2.168404e-16
    endloop
  endfacet
  facet normal 3.873099e-01 -5.868725e-01 -7.110356e-01
    outer loop
      vertex   5.409728e+00 -6.672552e+00 -2.168404e-16
      vertex   6.088050e+00 -7.933199e+00 1.410000e+00
      vertex   4.007973e+00 -7.597648e+00 -2.168404e-16
    endloop
  endfacet
  facet normal 4.828108e-01 -5.344886e-01 -6.936971e-01
    outer loop
      vertex   5.409728e+00 -6.672552e+00 -2.168404e-16
      vertex   6.090000e+00 -6.058052e+00 0.000000e+00
      vertex   7.500000e+00 -6.614378e+00 1.410000e+00
    endloop
  endfacet
  facet normal 0.000000e+00 0.000000e+00 -1.000000e+00
    outer loop
      vertex   -8.752212e-01 8.545296e+00 -2.168404e-16
      vertex   8.042640e-01 8.552266e+00 -2.168404e-16
      vertex   5.409728e+00 6.672552e+00 -2.168404e-16
    endloop
  endfacet
  facet normal 0.000000e+00 0.000000e+00 -1.000000e+00
    outer loop
      vertex   8.042640e-01 8.552266e+00 -2.168404e-16
      vertex   2.453004e+00 8.232306e+00 -2.168404e-16
      vertex   5.409728e+00 6.672552e+00 -2.168404e-16
    endloop
  endfacet
  facet normal 0.000000e+00 0.000000e+00 -1.000000e+00
    outer loop
      vertex   5.409728e+00 6.672552e+00 -2.168404e-16
      vertex   2.453004e+00 8.232306e+00 -2.168404e-16
      vertex   4.007973e+00 7.597648e+00 -2.168404e-16
    endloop
  endfacet
  facet normal 0.000000e+00 0.000000e+00 -1.000000e+00
    outer loop
      vertex   -5.464924e+00 6.627420e+00 -2.168404e-16
      vertex   -4.070896e+00 7.564119e+00 -2.168404e-16
      vertex   5.409728e+00 6.672552e+00 -2.168404e-16
    endloop
  endfacet
  facet normal 0.000000e+00 0.000000e+00 -1.000000e+00
    outer loop
      vertex   -4.070896e+00 7.564119e+00 -2.168404e-16
      vertex   -2.521249e+00 8.211663e+00 -2.168404e-16
      vertex   5.409728e+00 6.672552e+00 -2.168404e-16
    endloop
  endfacet
  facet normal 0.000000e+00 0.000000e+00 -1.000000e+00
    outer loop
      vertex   5.409728e+00 6.672552e+00 -2.168404e-16
      vertex   -2.521249e+00 8.211663e+00 -2.168404e-16
      vertex   -8.752212e-01 8.545296e+00 -2.168404e-16
    endloop
  endfacet
  facet normal 0.000000e+00 0.000000e+00 -1.000000e+00
    outer loop
      vertex   -2.521249e+00 -8.211663e+00 -2.168404e-16
      vertex   -4.070896e+00 -7.564119e+00 -2.168404e-16
      vertex   5.409728e+00 6.672552e+00 -2.168404e-16
    endloop
  endfacet
  facet normal 0.000000e+00 0.000000e+00 -1.000000e+00
    outer loop
      vertex   -4.070896e+00 -7.564119e+00 -2.168404e-16
      vertex   -5.464924e+00 -6.627420e+00 -2.168404e-16
      vertex   5.409728e+00 6.672552e+00 -2.168404e-16
    endloop
  endfacet
  facet normal 0.000000e+00 0.000000e+00 -1.000000e+00
    outer loop
      vertex   5.409728e+00 6.672552e+00 -2.168404e-16
      vertex   -5.464924e+00 -6.627420e+00 -2.168404e-16
      vertex   -6.650043e+00 -5.437373e+00 -2.168404e-16
    endloop
  endfacet
  facet normal -0.000000e+00 0.000000e+00 -1.000000e+00
    outer loop
      vertex   2.453004e+00 -8.232306e+00 -2.168404e-16
      vertex   8.042640e-01 -8.552266e+00 -2.168404e-16
      vertex   5.409728e+00 6.672552e+00 -2.168404e-16
    endloop
  endfacet
  facet normal 0.000000e+00 0.000000e+00 -1.000000e+00
    outer loop
      vertex   8.042640e-01 -8.552266e+00 -2.168404e-16
      vertex   -8.752212e-01 -8.545296e+00 -2.168404e-16
      vertex   5.409728e+00 6.672552e+00 -2.168404e-16
    endloop
  endfacet
  facet normal 0.000000e+00 0.000000e+00 -1.000000e+00
    outer loop
      vertex   5.409728e+00 6.672552e+00 -2.168404e-16
      vertex   -8.752212e-01 -8.545296e+00 -2.168404e-16
      vertex   -2.521249e+00 -8.211663e+00 -2.168404e-16
    endloop
  endfacet
  facet normal 0.000000e+00 0.000000e+00 -1.000000e+00
    outer loop
      vertex   -8.222055e+00 2.487148e+00 -2.168404e-16
      vertex   -7.580949e+00 4.039470e+00 -2.168404e-16
      vertex   5.409728e+00 6.672552e+00 -2.168404e-16
    endloop
  endfacet
  facet normal 0.000000e+00 0.000000e+00 -1.000000e+00
    outer loop
      vertex   -7.580949e+00 4.039470e+00 -2.168404e-16
      vertex   -6.650043e+00 5.437373e+00 -2.168404e-16
      vertex   5.409728e+00 6.672552e+00 -2.168404e-16
    endloop
  endfacet
  facet normal 0.000000e+00 0.000000e+00 -1.000000e+00
    outer loop
      vertex   5.409728e+00 6.672552e+00 -2.168404e-16
      vertex   -6.650043e+00 5.437373e+00 -2.168404e-16
      vertex   -5.464924e+00 6.627420e+00 -2.168404e-16
    endloop
  endfacet
  facet normal 0.000000e+00 0.000000e+00 -1.000000e+00
    outer loop
      vertex   -8.222055e+00 -2.487148e+00 -2.168404e-16
      vertex   -8.548855e+00 -8.397498e-01 -2.168404e-16
      vertex   5.409728e+00 6.672552e+00 -2.168404e-16
    endloop
  endfacet
  facet normal 0.000000e+00 0.000000e+00 -1.000000e+00
    outer loop
      vertex   -8.548855e+00 -8.397498e-01 -2.168404e-16
      vertex   -8.548855e+00 8.397498e-01 -2.168404e-16
      vertex   5.409728e+00 6.672552e+00 -2.168404e-16
    endloop
  endfacet
  facet normal 0.000000e+00 0.000000e+00 -1.000000e+00
    outer loop
      vertex   5.409728e+00 6.672552e+00 -2.168404e-16
      vertex   -8.548855e+00 8.397498e-01 -2.168404e-16
      vertex   -8.222055e+00 2.487148e+00 -2.168404e-16
    endloop
  endfacet
  facet normal 3.187554e-16 2.380197e-32 -1.000000e+00
    outer loop
      vertex   6.090000e+00 -6.058052e+00 0.000000e+00
      vertex   5.409728e+00 -6.672552e+00 -2.168404e-16
      vertex   5.409728e+00 6.672552e+00 -2.168404e-16
    endloop
  endfacet
  facet normal -0.000000e+00 0.000000e+00 -1.000000e+00
    outer loop
      vertex   5.409728e+00 -6.672552e+00 -2.168404e-16
      vertex   4.007973e+00 -7.597648e+00 -2.168404e-16
      vertex   5.409728e+00 6.672552e+00 -2.168404e-16
    endloop
  endfacet
  facet normal 0.000000e+00 0.000000e+00 -1.000000e+00
    outer loop
      vertex   5.409728e+00 6.672552e+00 -2.168404e-16
      vertex   4.007973e+00 -7.597648e+00 -2.168404e-16
      vertex   2.453004e+00 -8.232306e+00 -2.168404e-16
    endloop
  endfacet
  facet normal 0.000000e+00 0.000000e+00 -1.000000e+00
    outer loop
      vertex   -6.650043e+00 -5.437373e+00 -2.168404e-16
      vertex   -7.580949e+00 -4.039470e+00 -2.168404e-16
      vertex   5.409728e+00 6.672552e+00 -2.168404e-16
    endloop
  endfacet
  facet normal 0.000000e+00 0.000000e+00 -1.000000e+00
    outer loop
      vertex   -7.580949e+00 -4.039470e+00 -2.168404e-16
      vertex   -8.222055e+00 -2.487148e+00 -2.168404e-16
      vertex   5.409728e+00 6.672552e+00 -2.168404e-16
    endloop
  endfacet
  facet normal 5.204912e-17 -1.425171e-17 -1.000000e+00
    outer loop
      vertex   5.409728e+00 6.672552e+00 -2.168404e-16
      vertex   6.090000e+00 6.058052e+00 -1.726752e-16
      vertex   6.090000e+00 -6.058052e+00 0.000000e+00
    endloop
  endfacet
endsolid
